<svg xmlns="http://www.w3.org/2000/svg" xml:space="preserve" width="2000" height="1500" viewBox="0 0 2000 1500" data-version="1" data-id="lg_OTD162FT59mCAtROEo" x="0" y="0"><rect width="2000" height="1500" id="background" stroke="transparent" fill="#3d9970"></rect><g id="outer-wrapper" data-padding="20" transform="matrix(2.5996533795493932,0,0,2.5996533795493932,-1599.6533795493933,-1199.740034662045)"><g id="inner-wrapper" transform="matrix(0.9653379549393414,0,0,0.9653379549393414,10,4.315424610051991)"><rect width="560" height="222.61" x="336.58757630161597" y="247.84210502692991" fill="none" rx="0" ry="0" transform="translate(400.5 400.18)"></rect><path fill="#fff" d="M814.967576301616 820.7071050269301H750.327576301616Q748.1175763016159 820.7071050269301 746.187576301616 819.4571050269301Q743.397576301616 817.4371050269301 742.537576301616 811.3771050269302V811.2871050269302Q742.537576301616 807.3371050269302 760.037576301616 678.9271050269301Q760.237576301616 677.4871050269302 760.807576301616 676.1371050269302Q762.827576301616 671.4271050269301 767.737576301616 671.4271050269301Q769.657576301616 671.4271050269301 771.297576301616 672.2871050269302Q775.337576301616 674.4071050269301 775.337576301616 679.1171050269302Q774.467576301616 687.8671050269302 770.907576301616 715.3871050269302Q759.847576301616 800.1271050269302 759.367576301616 804.8371050269302H814.297576301616Q816.507576301616 804.8371050269302 818.427576301616 805.6071050269302Q823.337576301616 807.6271050269302 823.337576301616 812.8271050269302Q823.337576301616 814.0771050269302 822.947576301616 815.3271050269302Q821.317576301616 819.7471050269302 814.967576301616 820.7071050269301M865.467576301616 739.9071050269301Q868.8375763016161 740.0071050269302 871.817576301616 740.5871050269302Q886.627576301616 743.7571050269302 889.9975763016159 763.6671050269301Q891.827576301616 762.6171050269302 896.057576301616 759.7271050269301Q901.827576301616 755.7871050269301 904.807576301616 755.7871050269301Q906.2475763016159 755.7871050269301 907.5975763016161 756.6471050269301Q910.5775763016161 758.5771050269302 910.5775763016161 761.8471050269302Q910.4875763016161 765.1171050269302 906.3475763016161 769.0571050269301Q900.477576301616 774.4471050269301 891.147576301616 778.1971050269301Q891.0575763016161 793.1971050269301 886.627576301616 803.5871050269301Q879.417576301616 820.51710502693 862.9675763016161 820.51710502693Q857.0975763016161 820.51710502693 851.2275763016161 816.76710502693Q837.667576301616 807.8271050269301 837.667576301616 784.5471050269301Q837.667576301616 770.4971050269301 842.377576301616 758.9571050269301Q849.787576301616 740.7771050269301 865.4675763016161 739.9071050269301M877.4875763016161 780.6971050269301Q873.7375763016161 780.5971050269302 870.377576301616 779.9271050269301Q857.677576301616 777.2371050269302 854.017576301616 766.4571050269301Q851.517576301616 774.5371050269301 851.517576301616 784.0671050269302Q851.517576301616 788.6771050269301 852.387576301616 793.0071050269302Q855.0775763016161 806.1871050269301 864.117576301616 806.1871050269301Q867.0975763016161 806.1871050269301 869.507576301616 804.3571050269302Q876.527576301616 798.9771050269302 877.487576301616 780.6971050269301M876.047576301616 767.6171050269302H877.397576301616Q875.947576301616 754.4371050269301 870.467576301616 754.3371050269302Q869.9875763016161 754.3371050269302 869.507576301616 754.4371050269302Q867.387576301616 755.2071050269302 867.387576301616 757.6071050269302Q867.387576301616 759.7271050269303 868.067576301616 761.7471050269303Q870.177576301616 767.6171050269302 876.047576301616 767.6171050269302 "></path><path fill="#fff" d="M899.5175763016159 790.9871050269301Q899.5175763016159 787.7171050269301 899.907576301616 784.06710502693Q901.927576301616 767.51710502693 910.2875763016159 754.7271050269301Q920.487576301616 739.13710502693 934.817576301616 739.13710502693Q941.077576301616 739.13710502693 945.787576301616 741.54710502693Q947.707576301616 739.2371050269301 950.977576301616 739.13710502693Q957.3275763016161 739.2371050269301 957.517576301616 747.31710502693Q957.517576301616 747.6071050269301 946.937576301616 823.4971050269301Q968.197576301616 807.62710502693 973.877576301616 802.9171050269301Q977.437576301616 799.8371050269301 981.277576301616 799.7471050269301Q982.627576301616 799.7471050269301 983.877576301616 800.6071050269301Q986.667576301616 802.52710502693 986.667576301616 805.51710502693Q986.5675763016161 810.03710502693 981.377576301616 814.4571050269301Q971.757576301616 822.53710502693 943.957576301616 843.79710502693L939.537576301616 875.63710502693Q937.897576301616 886.6071050269301 930.207576301616 892.37710502693Q923.947576301616 896.89710502693 916.447576301616 896.89710502693Q907.5975763016161 896.79710502693 900.767576301616 890.16710502693Q894.227576301616 883.52710502693 894.227576301616 875.34710502693Q894.227576301616 867.26710502693 897.887576301616 861.97710502693Q900.187576301616 858.60710502693 906.8275763016161 853.70710502693L907.017576301616 853.60710502693Q907.117576301616 853.51710502693 907.5975763016161 853.1271050269299Q914.237576301616 848.22710502693 930.5875763016161 835.9071050269299L933.377576301616 817.2471050269298Q926.937576301616 821.5771050269299 919.907576301616 821.6771050269299Q913.757576301616 821.6771050269299 909.237576301616 818.4971050269298Q899.5175763016159 811.3771050269299 899.5175763016159 790.9871050269298M933.667576301616 797.5271050269299Q935.0175763016159 795.60710502693 936.937576301616 787.2371050269298Q940.8775763016159 770.2071050269299 942.607576301616 752.9971050269298Q940.397576301616 751.8371050269299 938.087576301616 751.7471050269298Q936.357576301616 751.7471050269298 934.5275763016159 752.2271050269298Q925.587576301616 754.7271050269298 919.337576301616 768.7671050269299Q913.847576301616 781.36710502693 913.847576301616 794.06710502693Q913.847576301616 795.4171050269299 913.947576301616 796.7571050269299Q914.617576301616 806.85710502693 919.907576301616 806.85710502693Q922.607576301616 806.85710502693 926.447576301616 804.1671050269299Q930.977576301616 800.99710502693 933.667576301616 797.52710502693M925.777576301616 867.93710502693L927.417576301616 856.20710502693Q927.027576301616 856.4971050269301 926.547576301616 856.8771050269299Q917.027576301616 864.18710502693 916.8375763016161 864.3871050269299Q909.907576301616 869.57710502693 909.8075763016161 874.19710502693Q909.8075763016161 875.82710502693 910.387576301616 877.27710502693Q912.027576301616 881.50710502693 916.447576301616 881.50710502693Q918.277576301616 881.50710502693 919.717576301616 880.92710502693Q924.427576301616 878.90710502693 925.777576301616 867.93710502693 "></path><path fill="#fff" d="M993.317576301616 746.1571050269299Q993.317576301616 748.9471050269299 992.3575763016161 758.1771050269299Q989.367576301616 785.4971050269298 989.367576301616 792.1371050269299Q989.367576301616 796.5571050269299 991.197576301616 800.4071050269299Q993.887576301616 806.1771050269299 998.417576301616 806.1771050269299Q999.377576301616 806.1771050269299 1000.437576301616 805.9871050269298Q1003.227576301616 805.3071050269298 1008.5175763016159 801.4671050269299Q1013.707576301616 797.6171050269298 1016.877576301616 797.6171050269298Q1018.227576301616 797.6171050269298 1019.577576301616 798.5771050269298Q1022.2675763016159 800.4971050269298 1022.2675763016159 803.6771050269299Q1021.887576301616 808.5771050269298 1014.667576301616 814.0671050269298Q1005.8175763016159 820.2171050269299 996.107576301616 820.2171050269299Q987.927576301616 820.2171050269299 982.5375763016159 814.5471050269298Q974.457576301616 805.8871050269297 974.457576301616 787.0371050269298Q974.457576301616 780.5871050269297 977.057576301616 761.8371050269297Q978.217576301616 753.0771050269298 978.697576301616 748.9471050269299Q978.7875763016159 748.0771050269298 978.887576301616 747.2071050269299Q980.427576301616 737.5971050269297 986.7775763016159 737.5971050269297Q987.827576301616 737.5971050269297 988.887576301616 737.7871050269298Q993.317576301616 738.8471050269297 993.317576301616 746.1571050269298M982.347576301616 720.9471050269299Q982.347576301616 719.2171050269299 983.1175763016159 717.6771050269299Q985.0475763016159 713.9271050269299 989.3675763016159 713.9271050269299Q991.107576301616 713.9271050269299 992.6375763016159 714.6971050269299Q996.3975763016159 716.6271050269298 996.3975763016159 720.9471050269299Q996.3975763016159 722.6871050269299 995.6275763016159 724.2171050269299Q993.697576301616 727.9771050269298 989.3675763016159 727.9771050269298Q987.6375763016159 727.9771050269298 986.097576301616 727.2071050269299Q982.347576301616 725.2771050269298 982.347576301616 720.9471050269299 "></path><path fill="#fff" d="M1019.377576301616 772.5171050269299H1020.337576301616Q1026.207576301616 772.61710502693 1030.817576301616 772.61710502693L1036.877576301616 732.11710502693Q1045.637576301616 673.6371050269299 1072.277576301616 673.53710502693Q1077.567576301616 673.53710502693 1081.517576301616 675.1771050269299Q1091.897576301616 679.4071050269299 1091.897576301616 693.1671050269299Q1091.897576301616 698.2571050269299 1090.647576301616 703.83710502693Q1086.227576301616 723.94710502693 1067.757576301616 745.68710502693Q1056.117576301616 759.43710502693 1046.017576301616 765.9771050269301L1045.0575763016159 772.61710502693H1054.967576301616Q1057.367576301616 772.61710502693 1059.2975763016161 773.57710502693Q1062.847576301616 775.4071050269299 1062.847576301616 779.6371050269299Q1062.847576301616 781.36710502693 1061.987576301616 783.00710502693Q1059.7775763016161 786.56710502693 1054.867576301616 786.56710502693H1043.037576301616L1038.517576301616 818.30710502693Q1063.717576301616 799.16710502693 1065.447576301616 797.6271050269299Q1069.2975763016161 794.54710502693 1072.857576301616 794.54710502693Q1074.107576301616 794.54710502693 1075.457576301616 795.41710502693Q1078.2375763016162 797.33710502693 1078.2375763016162 800.31710502693Q1078.147576301616 804.6471050269299 1072.947576301616 809.26710502693Q1062.7575763016162 817.72710502693 1035.727576301616 838.50710502693L1031.107576301616 870.44710502693Q1029.667576301616 880.05710502693 1023.897576301616 885.63710502693Q1017.4475763016161 891.69710502693 1008.0275763016161 891.69710502693Q999.2675763016161 891.69710502693 992.5375763016161 885.06710502693Q985.7975763016161 878.42710502693 985.7975763016161 870.05710502693Q985.7975763016161 861.9771050269301 989.5575763016161 856.68710502693Q991.767576301616 853.60710502693 998.207576301616 848.70710502693Q998.3075763016161 848.60710502693 998.887576301616 848.22710502693Q1005.137576301616 843.5071050269299 1022.167576301616 830.71710502693L1028.7975763016161 786.56710502693H1019.377576301616Q1018.5075763016159 786.56710502693 1017.737576301616 786.46710502693Q1011.487576301616 785.69710502693 1011.487576301616 779.6371050269299Q1011.487576301616 778.19710502693 1011.867576301616 776.94710502693Q1013.5075763016159 772.51710502693 1019.377576301616 772.51710502693M1072.467576301616 688.06710502693Q1064.297576301616 688.35710502693 1058.527576301616 701.6271050269299Q1053.517576301616 713.36710502693 1049.767576301616 740.19710502693Q1049.197576301616 744.81710502693 1048.907576301616 746.35710502693Q1055.3475763016158 740.19710502693 1062.277576301616 730.57710502693Q1077.857576301616 709.03710502693 1077.857576301616 694.12710502693Q1077.857576301616 693.3571050269301 1077.477576301616 692.29710502693Q1076.027576301616 688.06710502693 1072.467576301616 688.06710502693M1017.357576301616 862.74710502693L1018.987576301616 851.0171050269299Q1008.987576301616 858.60710502693 1008.407576301616 859.1871050269299Q1001.477576301616 864.28710502693 1001.387576301616 868.99710502693Q1001.387576301616 870.6371050269299 1001.967576301616 872.07710502693Q1003.597576301616 876.30710502693 1008.0275763016159 876.30710502693Q1009.7575763016159 876.30710502693 1011.2975763016159 875.73710502693Q1016.0075763016159 873.80710502693 1017.357576301616 862.74710502693 "></path><path fill="#fff" d="M1123.257576301616 820.6971050269301Q1100.0775763016159 819.7371050269301 1088.917576301616 792.41710502693Q1080.647576301616 771.83710502693 1080.647576301616 742.01710502693Q1080.647576301616 740.4771050269301 1080.837576301616 738.07710502693Q1082.187576301616 717.77710502693 1088.337576301616 700.84710502693Q1098.347576301616 673.52710502693 1116.627576301616 673.52710502693Q1117.587576301616 673.52710502693 1118.647576301616 673.62710502693Q1135.287576301616 674.6871050269301 1135.287576301616 692.9571050269301Q1135.287576301616 712.8671050269301 1118.157576301616 737.2071050269301Q1107.287576301616 752.6971050269301 1095.367576301616 762.31710502693Q1098.637576301616 780.58710502693 1102.5775763016159 789.7271050269301Q1109.887576301616 806.6571050269301 1124.317576301616 806.6571050269301Q1125.277576301616 806.6571050269301 1126.337576301616 806.4671050269301Q1129.507576301616 805.8871050269302 1135.187576301616 801.8471050269301Q1140.667576301616 798.0971050269301 1143.747576301616 798.0971050269301Q1145.0975763016158 798.0971050269301 1146.3475763016158 798.9671050269301Q1149.1375763016158 800.8871050269302 1149.1375763016158 804.1571050269301Q1148.9475763016158 809.1571050269301 1142.017576301616 814.4471050269301Q1133.357576301616 820.6971050269301 1123.257576301616 820.6971050269301M1116.717576301616 688.0571050269301Q1111.047576301616 688.1471050269301 1106.717576301616 692.9571050269301Q1095.747576301616 705.3671050269302 1094.687576301616 744.8071050269301Q1100.467576301616 738.9371050269301 1106.237576301616 730.9571050269301Q1122.197576301616 709.1171050269302 1122.197576301616 694.1171050269301Q1122.197576301616 693.3471050269301 1121.8175763016159 692.28710502693Q1120.277576301616 688.05710502693 1116.717576301616 688.05710502693 "></path><path fill="#fff" d="M1158.957576301616 739.90710502693Q1162.3275763016159 740.00710502693 1165.3075763016159 740.58710502693Q1180.1175763016158 743.75710502693 1183.4875763016157 763.66710502693Q1185.3175763016159 762.61710502693 1189.5475763016157 759.7271050269301Q1195.3175763016156 755.78710502693 1198.2975763016157 755.78710502693Q1199.7375763016157 755.78710502693 1201.0875763016156 756.64710502693Q1204.0675763016156 758.57710502693 1204.0675763016156 761.84710502693Q1203.9775763016157 765.11710502693 1199.8375763016156 769.05710502693Q1193.9675763016157 774.44710502693 1184.6375763016158 778.19710502693Q1184.5475763016157 793.19710502693 1180.1175763016158 803.58710502693Q1172.9075763016158 820.51710502693 1156.4575763016157 820.51710502693Q1150.5875763016156 820.51710502693 1144.7175763016157 816.76710502693Q1131.1575763016158 807.82710502693 1131.1575763016158 784.54710502693Q1131.1575763016158 770.4971050269301 1135.8675763016158 758.9571050269301Q1143.2775763016157 740.77710502693 1158.957576301616 739.90710502693M1170.977576301616 780.6971050269301Q1167.227576301616 780.59710502693 1163.8675763016158 779.9271050269301Q1151.1675763016158 777.2371050269301 1147.5075763016157 766.4571050269301Q1145.0075763016157 774.53710502693 1145.0075763016157 784.06710502693Q1145.0075763016157 788.6771050269301 1145.8775763016158 793.00710502693Q1148.5675763016159 806.1871050269301 1157.6075763016158 806.1871050269301Q1160.5875763016159 806.1871050269301 1162.997576301616 804.3571050269301Q1170.017576301616 798.9771050269301 1170.977576301616 780.6971050269301M1169.537576301616 767.6171050269301H1170.8875763016158Q1169.4375763016158 754.4371050269301 1163.957576301616 754.3371050269301Q1163.477576301616 754.3371050269301 1162.997576301616 754.4371050269301Q1160.8775763016158 755.2071050269301 1160.8775763016158 757.6071050269302Q1160.8775763016158 759.7271050269301 1161.5575763016159 761.7471050269301Q1163.6675763016158 767.6171050269302 1169.537576301616 767.6171050269302 "></path><path fill="#fff" d="M1251.6775763016158 821.1971050269299Q1240.707576301616 821.09710502693 1233.497576301616 813.8871050269299Q1225.417576301616 821.09710502693 1213.107576301616 821.1971050269299Q1209.6375763016158 821.1971050269299 1206.5575763016159 820.32710502693Q1189.727576301616 815.2271050269298 1189.727576301616 783.2971050269299Q1189.727576301616 767.9071050269299 1193.0975763016158 752.3171050269299Q1195.8875763016158 740.1971050269299 1202.6175763016158 740.10710502693Q1208.777576301616 740.1971050269299 1208.967576301616 747.60710502693Q1208.967576301616 749.1471050269299 1208.0975763016158 754.33710502693Q1204.737576301616 776.36710502693 1204.737576301616 786.08710502693Q1204.737576301616 805.99710502693 1215.4075763016158 806.1871050269299Q1223.297576301616 805.60710502693 1227.8175763016159 797.33710502693L1227.6275763016158 794.2571050269299Q1227.6275763016158 789.2571050269299 1228.6875763016158 782.4271050269299Q1231.767576301616 762.5171050269299 1240.2275763016157 762.5171050269299Q1247.3475763016158 762.61710502693 1247.4475763016158 775.59710502693Q1247.4475763016158 788.4871050269298 1243.2075763016157 799.4571050269299Q1244.9375763016158 806.08710502693 1252.3475763016158 806.1871050269299Q1259.0775763016159 806.1871050269299 1265.4275763016158 801.2771050269299Q1274.9575763016157 793.7771050269299 1281.1075763016156 778.0071050269299Q1276.8775763016156 777.32710502693 1273.3175763016156 775.59710502693Q1262.4475763016158 770.11710502693 1262.4475763016158 757.1271050269299Q1262.4475763016158 750.7771050269299 1267.0675763016156 746.06710502693Q1272.2575763016157 740.7771050269299 1279.2775763016157 740.7771050269299Q1285.537576301616 740.7771050269299 1290.537576301616 744.2371050269298Q1297.6575763016158 749.33710502693 1297.9475763016158 758.2871050269299L1297.7475763016157 763.1871050269299Q1299.3875763016158 762.4171050269299 1301.8875763016158 760.8771050269299Q1305.6375763016158 758.5771050269299 1308.0475763016157 758.5771050269299Q1309.3875763016158 758.5771050269299 1310.7375763016157 759.3371050269299Q1314.0075763016157 761.1671050269299 1314.0075763016157 764.8271050269299Q1314.0075763016157 767.0371050269298 1312.3675763016158 769.0571050269299Q1307.9475763016158 774.5371050269299 1295.1575763016158 777.2371050269298Q1291.1175763016158 790.9871050269298 1283.4175763016156 801.9571050269299Q1269.8575763016156 821.1971050269299 1251.6775763016158 821.1971050269299M1280.6275763016158 754.1471050269299Q1279.6675763016158 754.1471050269299 1278.6075763016158 754.5371050269299Q1275.5275763016157 755.6871050269299 1275.5275763016157 758.7671050269299Q1275.5275763016157 759.1471050269299 1275.6275763016158 759.5371050269299Q1276.2975763016157 764.5371050269299 1284.6675763016158 765.11710502693Q1285.1475763016158 762.8971050269299 1285.1475763016158 760.4971050269298Q1285.0575763016159 754.7271050269298 1280.6275763016158 754.1471050269299 "></path></g><rect width="577" height="249" x="711.5" y="625.5" id="space-saver" fill="transparent" stroke="transparent"></rect></g></svg>